<svg width="42" height="42" viewBox="0 0 42 42" fill="none" xmlns="http://www.w3.org/2000/svg">
<path fill-rule="evenodd" clip-rule="evenodd" d="M3.5 10.5C3.5 8.64348 4.2375 6.86301 5.55025 5.55025C6.86301 4.2375 8.64348 3.5 10.5 3.5H31.5C33.3565 3.5 35.137 4.2375 36.4497 5.55025C37.7625 6.86301 38.5 8.64348 38.5 10.5V31.5C38.5 33.3565 37.7625 35.137 36.4497 36.4497C35.137 37.7625 33.3565 38.5 31.5 38.5H10.5C8.64348 38.5 6.86301 37.7625 5.55025 36.4497C4.2375 35.137 3.5 33.3565 3.5 31.5V10.5ZM10.5 7C9.57174 7 8.6815 7.36875 8.02513 8.02513C7.36875 8.6815 7 9.57174 7 10.5V31.5C7 32.4283 7.36875 33.3185 8.02513 33.9749C8.6815 34.6313 9.57174 35 10.5 35H21V22.75H19.25C18.7859 22.75 18.3408 22.5656 18.0126 22.2374C17.6844 21.9092 17.5 21.4641 17.5 21C17.5 20.5359 17.6844 20.0908 18.0126 19.7626C18.3408 19.4344 18.7859 19.25 19.25 19.25H21V16.625C21 15.0005 21.6453 13.4426 22.794 12.294C23.9426 11.1453 25.5005 10.5 27.125 10.5H28.175C28.6391 10.5 29.0842 10.6844 29.4124 11.0126C29.7406 11.3408 29.925 11.7859 29.925 12.25C29.925 12.7141 29.7406 13.1592 29.4124 13.4874C29.0842 13.8156 28.6391 14 28.175 14H27.125C26.7803 14 26.4389 14.0679 26.1205 14.1998C25.802 14.3317 25.5126 14.5251 25.2688 14.7688C25.0251 15.0126 24.8317 15.302 24.6998 15.6205C24.5679 15.9389 24.5 16.2803 24.5 16.625V19.25H28.175C28.6391 19.25 29.0842 19.4344 29.4124 19.7626C29.7406 20.0908 29.925 20.5359 29.925 21C29.925 21.4641 29.7406 21.9092 29.4124 22.2374C29.0842 22.5656 28.6391 22.75 28.175 22.75H24.5V35H31.5C32.4283 35 33.3185 34.6313 33.9749 33.9749C34.6313 33.3185 35 32.4283 35 31.5V10.5C35 9.57174 34.6313 8.6815 33.9749 8.02513C33.3185 7.36875 32.4283 7 31.5 7H10.5Z" fill="white"/>
</svg>
