<svg width="100" height="100" viewBox="0 0 124 124" fill="none" xmlns="http://www.w3.org/2000/svg">
<path d="M124 62C124 96.2417 96.2417 124 62 124C27.7583 124 0 96.2417 0 62C0 27.7583 27.7583 0 62 0C96.2417 0 124 27.7583 124 62Z" fill="white"/>
<path fill-rule="evenodd" clip-rule="evenodd" d="M62 122C95.1371 122 122 95.1371 122 62C122 28.8629 95.1371 2 62 2C28.8629 2 2 28.8629 2 62C2 95.1371 28.8629 122 62 122ZM62 124C96.2417 124 124 96.2417 124 62C124 27.7583 96.2417 0 62 0C27.7583 0 0 27.7583 0 62C0 96.2417 27.7583 124 62 124Z" fill="#2B8B74"/>
<g clip-path="url(#clip0_640_51)">
<path d="M21.3605 69.1149C19.3108 69.5444 17.7672 71.3633 17.7672 73.5358C17.7672 74.5463 18.0961 75.481 18.6782 76.2641L16.7803 87.4301C16.7044 87.9101 16.8309 88.3901 17.1346 88.769C17.4382 89.1479 17.919 89.35 18.3998 89.35H26.1431C26.6239 89.35 27.0794 89.1479 27.3831 88.7943C27.6867 88.4406 27.8386 87.9606 27.7627 87.4806L26.1431 75.8347C26.548 75.1526 26.7758 74.3442 26.7758 73.5358C26.7758 71.8938 25.8901 70.4791 24.5995 69.6707V63.633L34.7975 68.0539V93.3415C34.7975 96.4488 37.328 99.0003 40.4658 99.0003H87.0017C90.1142 99.0003 92.67 96.474 92.67 93.3415V66.5129L116.963 55.9785C117.595 55.7006 117.975 55.0691 117.95 54.4122C117.924 53.7301 117.469 53.1491 116.836 52.9218L61.6208 34.1013C61.2665 33.975 60.8616 33.975 60.5073 34.1266C41.6045 41.2506 10.5299 52.6691 7.64517 52.846C6.86072 52.846 6.20279 53.4017 6.05096 54.1596C5.89913 54.9175 6.30401 55.7006 7.01255 56.0038L21.3858 62.2183V69.1149H21.3605ZM20.3736 86.0912L22.069 76.0368C22.1702 75.4558 21.9425 74.8747 21.487 74.4958C21.2087 74.2684 21.0568 73.9147 21.0568 73.5611C21.0568 72.879 21.6135 72.3232 22.2968 72.3232C22.98 72.3232 23.5367 72.879 23.5367 73.5611C23.5367 73.94 23.3596 74.2179 23.2331 74.3695C22.9294 74.7231 22.7776 75.2031 22.8535 75.6831L24.2959 86.1165H20.3736V86.0912ZM89.431 93.3415C89.431 94.6299 88.3682 95.6909 87.0776 95.6909H40.5164C39.2258 95.6909 38.163 94.6299 38.163 93.3415V69.4938L61.3424 79.5483C61.5449 79.6493 61.7726 79.6746 62.0003 79.6746C62.2281 79.6746 62.4558 79.624 62.6583 79.5483L89.4057 67.9528V93.3415H89.431ZM12.6556 54.867C24.5995 51.1534 53.2954 40.3664 61.1147 37.4107L111.775 54.6901L62.0003 76.2641L29.1291 61.9909L56.8887 58.3279C58.1034 59.0605 59.9 59.5405 62.0003 59.5405C65.8214 59.5405 68.7062 58.0247 68.7062 56.0038C68.7062 53.9828 65.8214 52.467 62.0003 52.467C58.6854 52.467 56.1043 53.6038 55.4463 55.1954L23.2331 59.4394L12.6556 54.867ZM56.9393 56.0038C56.9393 55.2206 58.9131 54.1091 62.0003 54.1091C65.0876 54.1091 67.0613 55.2206 67.0613 56.0038C67.0613 56.7869 65.0876 57.8984 62.0003 57.8984C58.9131 57.8984 56.9393 56.7616 56.9393 56.0038Z" fill="#2B8B74"/>
</g>
<defs>
<clipPath id="clip0_640_51">
<rect width="112" height="65" fill="white" transform="translate(6 34)"/>
</clipPath>
</defs>
</svg>
