<svg width="100" height="100" viewBox="0 0 124 125" fill="none" xmlns="http://www.w3.org/2000/svg">
<path d="M123 62.5C123 96.4731 95.6818 124 62 124C28.3182 124 1 96.4731 1 62.5C1 28.5269 28.3182 1 62 1C95.6818 1 123 28.5269 123 62.5Z" fill="white" stroke="#2B8B74" stroke-width="2"/>
<path d="M30.2873 32.4599C30.141 32.6062 30.0678 32.6793 29.9215 32.8256C23.411 40.214 19.3877 49.87 19.3877 60.4769C19.3877 71.0839 23.411 80.7399 29.9215 88.0551C29.9947 88.2014 30.141 88.3477 30.2873 88.4208C37.895 96.687 48.7946 101.881 60.8646 101.881C72.9346 101.881 83.8342 96.687 91.442 88.3477C91.5151 88.2745 91.5883 88.2014 91.6614 88.0551C98.2451 80.7399 102.268 71.0108 102.268 60.4038C102.268 49.7968 98.2451 40.1408 91.7346 32.8256C91.6614 32.6793 91.5151 32.533 91.3688 32.4599C83.8342 24.1938 72.9346 19 60.8646 19C48.7946 19 37.8219 24.1938 30.2873 32.4599ZM97.733 58.2092H82.8101C82.6638 51.7719 81.7128 45.7003 80.1766 40.4334C83.5416 39.4824 86.614 38.3852 89.3937 36.9953C94.2217 42.8474 97.2209 50.1626 97.733 58.2092ZM89.3937 83.9586C86.614 82.5687 83.5416 81.4714 80.1766 80.5205C81.7128 75.2535 82.6638 69.182 82.8101 62.7446H97.733C97.2209 70.7181 94.2217 78.1065 89.3937 83.9586ZM23.9231 62.6715H38.846C38.9923 69.1088 39.9433 75.1804 41.4795 80.4473C38.1145 81.3983 35.0421 82.4955 32.2624 83.8854C27.5075 78.1065 24.4352 70.7181 23.9231 62.6715ZM63.0592 82.4955C66.9362 82.6419 70.7401 83.0076 74.3245 83.7391C71.5448 90.908 67.5214 95.8823 63.0592 97.1259V82.4955V82.4955ZM63.0592 78.0333V62.6715H78.3478C78.2015 68.7431 77.2506 74.4489 75.7875 79.4232C71.7642 78.6185 67.4483 78.1065 63.0592 78.0333ZM63.0592 58.2092V42.8474C67.4483 42.7011 71.7642 42.2622 75.7875 41.3844C77.2506 46.3587 78.1284 52.0645 78.3478 58.1361H63.0592V58.2092ZM63.0592 38.3852V23.7549C67.5214 24.9984 71.5448 29.9727 74.3245 37.1416C70.7401 37.8731 66.9362 38.312 63.0592 38.3852ZM58.5969 38.3852C54.7199 38.2389 50.916 37.8731 47.3316 37.1416C50.1113 30.0459 54.1347 25.0716 58.5969 23.828V38.3852ZM58.5969 42.8474V58.2092H43.3083C43.4546 52.1377 44.4055 46.4318 45.8686 41.4575C49.8919 42.2622 54.2078 42.7743 58.5969 42.8474ZM58.5969 62.6715V78.0333C54.2078 78.1796 49.8919 78.6185 45.8686 79.4963C44.4055 74.522 43.5277 68.8162 43.3083 62.7446H58.5969V62.6715ZM58.5969 82.4955V97.1259C54.1347 95.8091 50.1113 90.8348 47.3316 83.7391C50.916 83.0076 54.7199 82.6419 58.5969 82.4955ZM42.8693 84.7632C44.4787 89.006 46.5269 92.6636 48.8678 95.4434C43.8203 93.6877 39.2849 90.908 35.481 87.3967C37.7487 86.2994 40.2359 85.4216 42.8693 84.7632ZM78.7868 84.7632C81.4202 85.4948 83.9074 86.3726 86.1751 87.3967C82.3712 90.9811 77.8358 93.7609 72.7883 95.4434C75.1292 92.5905 77.1774 89.006 78.7868 84.7632ZM78.7868 36.1906C77.1774 31.9478 75.1292 28.2902 72.7883 25.5105C77.8358 27.2661 82.3712 30.0459 86.1751 33.5572C83.9074 34.5813 81.4202 35.4591 78.7868 36.1906ZM42.8693 36.1906C40.2359 35.4591 37.7487 34.5813 35.481 33.5572C39.2849 29.9727 43.8203 27.193 48.8678 25.5105C46.5269 28.2902 44.4787 31.8747 42.8693 36.1906ZM41.4795 40.4334C39.9433 45.7003 38.9923 51.7719 38.846 58.2092H23.9231C24.4352 50.1626 27.4344 42.8474 32.2624 36.9953C35.0421 38.312 38.1145 39.4824 41.4795 40.4334Z" fill="#2B8B74"/>
<path d="M67.1789 104.824C64.821 104.396 62.5998 104.038 60.3957 103.593C52.2114 101.952 44.2664 99.594 36.9535 95.441C31.7423 92.4673 27.1973 88.7416 23.9168 83.6316C19.4232 76.6416 18.4834 69.0364 20.1749 61.0039C20.6875 58.56 21.4393 56.1844 22.5841 53.9285C22.3961 55.3982 22.1398 56.868 22.0373 58.3378C21.576 64.4391 22.4303 70.2669 25.7109 75.582C28.4788 80.0768 32.5111 83.0847 37.2953 85.1697C42.2502 87.3231 47.4957 88.3998 52.8436 88.7245C57.1152 88.9809 61.4209 88.8612 65.7095 88.8954C66.1025 88.8954 66.4955 88.8441 66.9568 88.7929C66.9568 84.2981 66.9568 79.8546 66.9568 75.2402C79.6176 82.4352 92.2101 89.5961 104.973 96.8424C92.3639 104.243 79.8739 111.574 67.1789 119.026C67.1789 114.172 67.1789 109.506 67.1789 104.824Z" fill="white" stroke="#2B8B74" stroke-width="4" stroke-miterlimit="10"/>
</svg>
