<svg width="80" height="80" viewBox="0 0 124 124" fill="none" xmlns="http://www.w3.org/2000/svg">
<path d="M124 62C124 96.2417 96.2417 124 62 124C27.7583 124 0 96.2417 0 62C0 27.7583 27.7583 0 62 0C96.2417 0 124 27.7583 124 62Z" fill="white"/>
<path fill-rule="evenodd" clip-rule="evenodd" d="M62 122C95.1371 122 122 95.1371 122 62C122 28.8629 95.1371 2 62 2C28.8629 2 2 28.8629 2 62C2 95.1371 28.8629 122 62 122ZM62 124C96.2417 124 124 96.2417 124 62C124 27.7583 96.2417 0 62 0C27.7583 0 0 27.7583 0 62C0 96.2417 27.7583 124 62 124Z" fill="#2B8B74"/>
<path d="M62.5914 82.4586C61.468 81.351 59.9308 80.7098 58.3345 80.7098C58.3345 79.1942 57.7433 77.6786 56.5608 76.5128C55.3783 75.347 53.8411 74.764 52.3039 74.764C52.3039 73.2485 51.7127 71.7329 50.5302 70.567C49.4069 69.4595 47.8697 68.8183 46.2733 68.8183C46.2733 67.2444 45.623 65.7871 44.4996 64.6213C43.3763 63.5137 41.8391 62.8725 40.1836 62.8725C38.5873 62.8725 37.0501 63.5137 35.8676 64.6213L33.3253 67.1278C32.202 68.2354 31.5516 69.7509 31.5516 71.3831C31.5516 73.0153 32.202 74.4726 33.3253 75.6384C34.4487 76.746 35.9859 77.3872 37.5822 77.3872C37.5822 78.9611 38.2326 80.4183 39.3559 81.5842C40.4793 82.6917 42.0165 83.3329 43.6128 83.3329C43.6128 84.8485 44.204 86.3641 45.3865 87.53C46.569 88.6958 48.1062 89.2787 49.6434 89.2787C49.6434 90.7943 50.2346 92.3099 51.4171 93.4757C52.5404 94.5833 54.0776 95.2245 55.7331 95.2245C57.3294 95.2245 58.8666 94.5833 60.0491 93.4757L61.7637 91.7852C62.887 92.8928 64.4242 93.4757 66.0205 93.4757C67.6169 93.4757 69.1541 92.8345 70.3365 91.727C71.2234 90.8526 71.7555 89.8033 71.992 88.6958C72.4059 88.8124 72.8789 88.8707 73.3518 88.8707C74.9482 88.8707 76.4854 88.2294 77.6678 87.1219C78.4956 86.3058 79.0277 85.3149 79.2642 84.2073C79.7963 84.3239 80.3284 84.4405 80.8605 84.4405C82.3977 84.4405 83.994 83.8576 85.1765 82.6917C87.1867 80.7098 87.4823 77.7369 86.1225 75.4053C86.9502 75.1138 87.7188 74.6475 88.4283 74.0062C90.7932 71.6746 90.7932 67.8856 88.4283 65.5539L73.7066 51.0393C72.9971 50.3398 71.8738 50.3398 71.1643 51.0393C70.4548 51.7388 70.4548 52.8463 71.1643 53.5458L85.7677 67.9439C86.7137 68.8766 86.7137 70.4504 85.7677 71.3831C84.8809 72.2575 83.5211 72.3158 82.5751 71.6163C82.516 71.558 82.3977 71.4414 82.2795 71.3831L74.1204 63.3388C73.411 62.6393 72.2876 62.6393 71.5781 63.3388C70.8687 64.0383 70.8687 65.1459 71.5781 65.8454L79.7372 73.8897C79.9145 74.0645 80.0328 74.1811 80.2101 74.2977L82.516 76.5711C83.4619 77.5038 83.4619 79.0776 82.516 80.0103C81.57 80.943 79.9737 80.943 79.0277 80.0103L77.9635 78.9611C77.8452 78.7862 77.6678 78.6113 77.5496 78.4947L68.5037 69.5761C67.7942 68.8766 66.6709 68.8766 65.9614 69.5761C65.2519 70.2756 65.2519 71.3831 65.9614 72.0826L73.7066 79.7188C73.7657 79.8354 73.8248 79.8937 73.9431 80.0103L75.2438 81.2927C75.5394 81.7008 75.7168 82.2254 75.7168 82.75C75.7168 83.3912 75.4803 84.0324 75.0073 84.4405C74.5343 84.9068 73.9431 85.14 73.2927 85.14C72.6424 85.14 71.992 84.9068 71.5781 84.4405L70.7504 83.6244C70.6322 83.4495 70.4548 83.2746 70.3365 83.1581L62.2958 75.2304C61.5863 74.5309 60.463 74.5309 59.7535 75.2304C59.044 75.9299 59.044 77.0374 59.7535 77.7369L66.257 84.149C66.3162 84.2656 66.3753 84.3239 66.4935 84.4405L68.0307 85.9561C68.3264 86.3641 68.5037 86.8887 68.5037 87.4134C68.5037 88.0546 68.2672 88.6958 67.7942 89.1038C67.3213 89.5702 66.73 89.8033 66.0797 89.8033C65.4293 89.8033 64.779 89.5702 64.3651 89.1038L64.0695 88.8124C64.3651 88.1129 64.4833 87.4134 64.4833 86.6556C64.3651 85.0817 63.7739 83.5661 62.5914 82.4586ZM35.2764 71.4414C35.2764 70.8002 35.5129 70.159 35.9859 69.7509L38.5282 67.2444C39.0012 66.7781 39.5924 66.5449 40.2428 66.5449C40.8931 66.5449 41.5435 66.7781 41.9573 67.2444C42.4303 67.7107 42.6668 68.2936 42.6668 68.9349C42.6668 69.5178 42.4895 70.0424 42.0756 70.4505C42.0165 70.5087 41.9573 70.567 41.8982 70.6253L39.3559 73.1319C39.2968 73.1902 39.2377 73.2485 39.1785 73.3067C38.7647 73.6565 38.2326 73.8897 37.6413 73.8897C36.991 73.8897 36.3406 73.6565 35.9268 73.1902C35.5129 72.6655 35.2764 72.0826 35.2764 71.4414ZM41.307 77.3289C41.307 76.746 41.4844 76.2213 41.8982 75.8133C41.9573 75.755 42.0165 75.6967 42.0756 75.6384L44.6179 73.1319C44.677 73.0736 44.7361 73.0153 44.7953 72.957C45.2091 72.6072 45.7412 72.3741 46.3325 72.3741C46.9828 72.3741 47.6332 72.6072 48.047 73.0736C48.9339 73.948 48.993 75.347 48.2244 76.3379C48.1653 76.3962 48.1062 76.4545 48.047 76.5128L45.5047 79.0193C45.4456 79.0776 45.3865 79.1359 45.3274 79.1942C44.9135 79.544 44.3223 79.7771 43.7902 79.7771C43.1398 79.7771 42.4895 79.544 42.0756 79.0776C41.5435 78.6113 41.307 77.9701 41.307 77.3289ZM47.8697 81.7591C47.9288 81.7008 47.9879 81.6425 48.047 81.5842L50.5894 79.0776C50.6485 79.0193 50.7076 78.9611 50.7667 78.9028C51.1806 78.553 51.7718 78.3198 52.3039 78.3198C52.9543 78.3198 53.6046 78.553 54.0185 79.0193C54.9054 79.8937 54.9645 81.2927 54.1959 82.2837C54.1368 82.342 54.0776 82.4003 54.0185 82.4586L51.4762 84.9651C51.4171 85.0234 51.358 85.0817 51.2988 85.14C50.3529 85.8978 48.9339 85.8978 47.9879 84.9651C47.1011 84.0907 47.042 82.6917 47.8697 81.7591ZM55.7331 91.6104C55.0827 91.6104 54.4324 91.3772 54.0185 90.9109C53.1317 90.0365 53.0725 88.6375 53.8411 87.6465C53.9003 87.5882 53.9594 87.5299 54.0185 87.4717L56.5608 84.9651C56.6199 84.9068 56.6791 84.8485 56.7382 84.7902C57.152 84.4405 57.7433 84.2073 58.2754 84.2073C58.9257 84.2073 59.5761 84.4405 59.99 84.9068C60.463 85.3732 60.6994 85.9561 60.6994 86.5973C60.6994 87.2385 60.463 87.8797 59.99 88.2877L57.4477 90.7943C57.0338 91.3772 56.3834 91.6104 55.7331 91.6104Z" fill="#2B8B74"/>
<path d="M118.167 78.4364H110.008V45.793H118.167C119.172 45.793 120 44.9769 120 43.986C120 42.995 119.172 42.1789 118.167 42.1789H108.234H98.7747C97.7696 42.1789 96.9419 42.995 96.9419 43.986V46.6674H89.7289L84.1713 38.6231C83.0479 36.991 81.156 36 79.0866 36H66.2569C64.6014 36 63.0642 36.6412 61.9409 37.7488L59.2803 40.3719H48.6381C44.9134 40.3719 41.4251 41.7709 38.8237 44.394L36.8726 46.3176H26.999V44.0443C26.999 43.0533 26.1713 42.2372 25.1662 42.2372H15.7064H5.83282C4.82773 42.2372 4 43.0533 4 44.0443C4 45.0352 4.82773 45.793 5.83282 45.793H13.9918V78.4364H5.83282C4.82773 78.4364 4 79.2525 4 80.2435C4 81.2344 4.82773 82.0505 5.83282 82.0505H15.7655H25.2253C26.2304 82.0505 27.0581 81.2344 27.0581 80.2435V78.3781H30.4873C31.4924 78.3781 32.3201 77.5621 32.3201 76.5711C32.3201 75.5801 31.4924 74.764 30.4873 74.764H27.0581V49.8734H37.6412C38.1142 49.8734 38.5872 49.6986 38.9419 49.3488L41.4251 46.9006C43.3761 44.9769 45.9184 43.9277 48.6972 43.9277H55.7329L53.6636 45.9096C52.3629 47.192 51.6534 48.8825 51.6534 50.6895C51.6534 52.4966 52.3629 54.187 53.6636 55.4695C54.9643 56.7519 56.6789 57.4514 58.5117 57.4514C60.3445 57.4514 62.0591 56.7519 63.3598 55.4695L69.8043 49.1157H77.1356C78.1407 49.1157 78.9684 48.2996 78.9684 47.3086C78.9684 46.3176 78.1407 45.5016 77.1356 45.5016H69.0357C68.5627 45.5016 68.0897 45.6764 67.735 46.0262L60.7584 52.9629C60.1672 53.5458 59.3394 53.8956 58.4526 53.8956C57.5657 53.8956 56.7971 53.5458 56.1468 52.9629C55.5556 52.38 55.2008 51.5639 55.2008 50.6895C55.2008 49.8152 55.5556 49.0574 56.1468 48.4162L61.2314 43.4031L64.4241 40.2553C64.897 39.789 65.5474 39.5558 66.1978 39.5558H79.0866C79.9144 39.5558 80.683 39.9638 81.156 40.6633L87.2457 49.4654C87.6004 49.9317 88.1325 50.2232 88.7238 50.2232H96.8828V74.764H89.788C88.7829 74.764 87.9551 75.5801 87.9551 76.5711C87.9551 77.5621 88.7829 78.3781 89.788 78.3781H96.8828V80.2435C96.8828 81.2344 97.7105 82.0505 98.7156 82.0505H108.175H118.108C119.113 82.0505 119.941 81.2344 119.941 80.2435C119.941 79.2525 119.113 78.4364 118.167 78.4364ZM23.3925 78.4364H17.5984V45.793H23.3925V78.4364ZM100.548 45.793H106.343V78.4364H100.548V45.793Z" fill="#2B8B74"/>
</svg>
