<svg width="42" height="42" viewBox="0 0 42 42" fill="none" xmlns="http://www.w3.org/2000/svg">
<path fill-rule="evenodd" clip-rule="evenodd" d="M3.5 10.5C3.5 8.64348 4.2375 6.86301 5.55025 5.55025C6.86301 4.2375 8.64348 3.5 10.5 3.5H31.5C33.3565 3.5 35.137 4.2375 36.4497 5.55025C37.7625 6.86301 38.5 8.64348 38.5 10.5V31.5C38.5 33.3565 37.7625 35.137 36.4497 36.4497C35.137 37.7625 33.3565 38.5 31.5 38.5H10.5C8.64348 38.5 6.86301 37.7625 5.55025 36.4497C4.2375 35.137 3.5 33.3565 3.5 31.5V10.5ZM10.5 7C9.57174 7 8.6815 7.36875 8.02513 8.02513C7.36875 8.6815 7 9.57174 7 10.5V31.5C7 32.4283 7.36875 33.3185 8.02513 33.9749C8.6815 34.6313 9.57174 35 10.5 35H31.5C32.4283 35 33.3185 34.6313 33.9749 33.9749C34.6313 33.3185 35 32.4283 35 31.5V10.5C35 9.57174 34.6313 8.6815 33.9749 8.02513C33.3185 7.36875 32.4283 7 31.5 7H10.5ZM21 15.75C19.6076 15.75 18.2723 16.3031 17.2877 17.2877C16.3031 18.2723 15.75 19.6076 15.75 21C15.75 22.3924 16.3031 23.7277 17.2877 24.7123C18.2723 25.6969 19.6076 26.25 21 26.25C22.3924 26.25 23.7277 25.6969 24.7123 24.7123C25.6969 23.7277 26.25 22.3924 26.25 21C26.25 19.6076 25.6969 18.2723 24.7123 17.2877C23.7277 16.3031 22.3924 15.75 21 15.75ZM12.25 21C12.25 18.6794 13.1719 16.4538 14.8128 14.8128C16.4538 13.1719 18.6794 12.25 21 12.25C23.3206 12.25 25.5462 13.1719 27.1872 14.8128C28.8281 16.4538 29.75 18.6794 29.75 21C29.75 23.3206 28.8281 25.5462 27.1872 27.1872C25.5462 28.8281 23.3206 29.75 21 29.75C18.6794 29.75 16.4538 28.8281 14.8128 27.1872C13.1719 25.5462 12.25 23.3206 12.25 21ZM30.625 14C31.3212 14 31.9889 13.7234 32.4812 13.2312C32.9734 12.7389 33.25 12.0712 33.25 11.375C33.25 10.6788 32.9734 10.0111 32.4812 9.51884C31.9889 9.02656 31.3212 8.75 30.625 8.75C29.9288 8.75 29.2611 9.02656 28.7688 9.51884C28.2766 10.0111 28 10.6788 28 11.375C28 12.0712 28.2766 12.7389 28.7688 13.2312C29.2611 13.7234 29.9288 14 30.625 14Z" fill="white"/>
</svg>
