<svg width="42" height="42" viewBox="0 0 42 42" fill="none" xmlns="http://www.w3.org/2000/svg">
<path fill-rule="evenodd" clip-rule="evenodd" d="M10.5 3.5C8.64348 3.5 6.86301 4.2375 5.55025 5.55025C4.2375 6.86301 3.5 8.64348 3.5 10.5V31.5C3.5 33.3565 4.2375 35.137 5.55025 36.4497C6.86301 37.7625 8.64348 38.5 10.5 38.5H31.5C33.3565 38.5 35.137 37.7625 36.4497 36.4497C37.7625 35.137 38.5 33.3565 38.5 31.5V10.5C38.5 8.64348 37.7625 6.86301 36.4497 5.55025C35.137 4.2375 33.3565 3.5 31.5 3.5H10.5ZM7 10.5C7 9.57174 7.36875 8.6815 8.02513 8.02513C8.6815 7.36875 9.57174 7 10.5 7H31.5C32.4283 7 33.3185 7.36875 33.9749 8.02513C34.6313 8.6815 35 9.57174 35 10.5V31.5C35 32.4283 34.6313 33.3185 33.9749 33.9749C33.3185 34.6313 32.4283 35 31.5 35H10.5C9.57174 35 8.6815 34.6313 8.02513 33.9749C7.36875 33.3185 7 32.4283 7 31.5V10.5ZM15.75 19.25C15.75 18.7859 15.5656 18.3408 15.2374 18.0126C14.9092 17.6844 14.4641 17.5 14 17.5C13.5359 17.5 13.0908 17.6844 12.7626 18.0126C12.4344 18.3408 12.25 18.7859 12.25 19.25V29.75C12.25 30.2141 12.4344 30.6593 12.7626 30.9874C13.0908 31.3156 13.5359 31.5 14 31.5C14.4641 31.5 14.9092 31.3156 15.2374 30.9874C15.5656 30.6593 15.75 30.2141 15.75 29.75V19.25ZM16.625 13.125C16.625 13.8212 16.3484 14.4889 15.8562 14.9812C15.3639 15.4734 14.6962 15.75 14 15.75C13.3038 15.75 12.6361 15.4734 12.1438 14.9812C11.6516 14.4889 11.375 13.8212 11.375 13.125C11.375 12.4288 11.6516 11.7611 12.1438 11.2688C12.6361 10.7766 13.3038 10.5 14 10.5C14.6962 10.5 15.3639 10.7766 15.8562 11.2688C16.3484 11.7611 16.625 12.4288 16.625 13.125ZM21 17.5C21.595 17.5 22.12 17.7975 22.435 18.249C23.337 17.7574 24.3478 17.4999 25.375 17.5C29.155 17.5 31.5 20.8705 31.5 23.7493V29.75C31.5 30.2141 31.3156 30.6593 30.9874 30.9874C30.6593 31.3156 30.2141 31.5 29.75 31.5C29.2859 31.5 28.8407 31.3156 28.5126 30.9874C28.1844 30.6593 28 30.2141 28 29.75V23.7475C28 22.4035 26.845 20.9982 25.375 20.9982C24.458 20.9982 23.4447 21.497 22.75 22.6835V29.75C22.75 30.2141 22.5656 30.6593 22.2374 30.9874C21.9092 31.3156 21.4641 31.5 21 31.5C20.5359 31.5 20.0908 31.3156 19.7626 30.9874C19.4344 30.6593 19.25 30.2141 19.25 29.75V19.25C19.25 18.7859 19.4344 18.3408 19.7626 18.0126C20.0908 17.6844 20.5359 17.5 21 17.5Z" fill="white"/>
</svg>
