<svg width="42" height="42" viewBox="0 0 42 42" fill="none" xmlns="http://www.w3.org/2000/svg">
<path fill-rule="evenodd" clip-rule="evenodd" d="M6.125 21C6.125 18.058 6.9974 15.1821 8.63189 12.7359C10.2664 10.2897 12.5895 8.38315 15.3076 7.25729C18.0256 6.13144 21.0165 5.83686 23.902 6.41082C26.7874 6.98477 29.4379 8.40148 31.5182 10.4818C33.5985 12.5621 35.0152 15.2126 35.5892 18.098C36.1631 20.9835 35.8686 23.9744 34.7427 26.6924C33.6169 29.4105 31.7103 31.7336 29.2641 33.3681C26.8179 35.0026 23.942 35.875 21 35.875C18.1857 35.88 15.4284 35.0823 13.0515 33.5755C12.8401 33.4418 12.6024 33.3549 12.3546 33.3208C12.1067 33.2867 11.8545 33.3061 11.6147 33.3778L6.57475 34.881L8.4735 30.4413C8.58386 30.1828 8.63035 29.9015 8.60903 29.6213C8.58771 29.341 8.4992 29.0701 8.351 28.8313C6.89138 26.4803 6.12019 23.7672 6.125 21ZM21 2.625C10.8517 2.625 2.625 10.8518 2.625 21C2.625 24.2165 3.45275 27.244 4.90875 29.8778L1.89 36.9373C1.75934 37.2431 1.71852 37.5798 1.77232 37.9079C1.82612 38.2361 1.9723 38.5421 2.19376 38.7902C2.41521 39.0383 2.70277 39.2181 3.02275 39.3087C3.34273 39.3992 3.68188 39.3967 4.0005 39.3015L11.8755 36.953C14.6528 38.5445 17.799 39.3797 21 39.375C31.1483 39.375 39.375 31.1483 39.375 21C39.375 10.8518 31.1483 2.625 21 2.625ZM25.0128 24.8185L22.7115 26.439C21.4436 25.7095 20.2793 24.8131 19.25 23.7738C18.1449 22.6702 17.1894 21.4264 16.408 20.0743L17.8692 18.8335C18.1737 18.5752 18.3807 18.2205 18.4558 17.8283C18.531 17.4361 18.4697 17.0301 18.2822 16.6775L16.4202 13.1775C16.2963 12.9451 16.1216 12.7436 15.9089 12.5881C15.6963 12.4326 15.4513 12.3271 15.1923 12.2795C14.9332 12.2319 14.6667 12.2434 14.4127 12.3131C14.1587 12.3829 13.9237 12.509 13.7252 12.6823L13.1722 13.1635C11.844 14.322 11.0582 16.226 11.7092 18.1545C12.7566 21.205 14.4898 23.9745 16.7755 26.25C19.9482 29.4228 23.1718 30.6723 25.0583 31.1588C26.5773 31.549 28.014 31.0258 29.0273 30.1998L30.0615 29.3563C30.2796 29.1784 30.4515 28.9507 30.5628 28.6923C30.6741 28.4339 30.7215 28.1524 30.7009 27.8718C30.6803 27.5912 30.5923 27.3197 30.4444 27.0804C30.2966 26.841 30.0932 26.6408 29.8515 26.4968L26.915 24.7468C26.6246 24.5735 26.2903 24.4881 25.9524 24.5008C25.6145 24.5135 25.2875 24.6239 25.011 24.8185H25.0128Z" fill="white"/>
</svg>
